<svg width="93" height="107" viewBox="0 0 93 107" fill="none" xmlns="http://www.w3.org/2000/svg">
<path d="M71.6326 49.5924C71.1717 49.3715 70.7036 49.1589 70.2293 48.9553C69.4034 33.7374 61.0881 25.0252 47.1256 24.936C47.0624 24.9356 46.9995 24.9356 46.9362 24.9356C38.5849 24.9356 31.6392 28.5004 27.3641 34.9872L35.0431 40.2547C38.2367 35.4094 43.2487 34.3764 46.9399 34.3764C46.9825 34.3764 47.0253 34.3764 47.0675 34.3768C51.6648 34.4061 55.134 35.7428 57.3793 38.3495C59.0133 40.2472 60.1061 42.8697 60.6473 46.1793C56.5712 45.4865 52.1631 45.2735 47.4506 45.5437C34.1757 46.3084 25.6416 54.0506 26.2148 64.8086C26.5056 70.2656 29.2242 74.9602 33.8694 78.027C37.7969 80.6195 42.8552 81.8873 48.1123 81.6003C55.0548 81.2197 60.5012 78.5709 64.3009 73.7275C67.1865 70.0493 69.0117 65.2828 69.8175 59.2769C73.1261 61.2737 75.5782 63.9013 76.9324 67.06C79.2352 72.4295 79.3695 81.2531 72.1698 88.4466C65.8618 94.7485 58.2793 97.4748 46.82 97.5589C34.1086 97.4647 24.4951 93.3882 18.2447 85.4423C12.3917 78.0019 9.36679 67.2551 9.25394 53.5C9.36679 39.7448 12.3917 28.9979 18.2447 21.5575C24.4951 13.6118 34.1084 9.53526 46.8199 9.4408C59.6235 9.53599 69.4045 13.6321 75.8942 21.6162C79.0763 25.5315 81.4755 30.4553 83.0571 36.1963L92.0557 33.7954C90.1386 26.7289 87.122 20.6397 83.0169 15.5897C74.6971 5.35372 62.5292 0.108754 46.8512 0H46.7885C31.1423 0.108377 19.1107 5.37329 11.0279 15.6484C3.83523 24.7919 0.125056 37.5145 0.000390102 53.4624L0 53.5L0.000390102 53.5376C0.125056 69.4854 3.83523 82.2083 11.0279 91.3518C19.1107 101.627 31.1423 106.892 46.7885 107H46.8512C60.7615 106.904 70.5665 103.262 78.6439 95.1916C89.2118 84.6337 88.8936 71.3997 85.4105 63.2755C82.9116 57.4495 78.1473 52.7177 71.6326 49.5924ZM47.6153 72.1732C41.7971 72.5009 35.7527 69.8894 35.4547 64.2959C35.2338 60.1485 38.4062 55.5207 47.9723 54.9695C49.0679 54.9063 50.1429 54.8754 51.1989 54.8754C54.6737 54.8754 57.9243 55.213 60.8797 55.859C59.7773 69.6252 53.3116 71.8605 47.6153 72.1732Z" fill="black"/>
</svg>
