<svg width="166" height="159" viewBox="0 0 166 159" fill="none" xmlns="http://www.w3.org/2000/svg">
<rect width="166" height="159" fill="black"/>
<path d="M108.633 75.5924C108.172 75.3715 107.704 75.1589 107.229 74.9553C106.403 59.7374 98.0881 51.0252 84.1256 50.936C84.0624 50.9356 83.9995 50.9356 83.9362 50.9356C75.5849 50.9356 68.6392 54.5004 64.3641 60.9872L72.0431 66.2547C75.2367 61.4094 80.2487 60.3764 83.9399 60.3764C83.9825 60.3764 84.0253 60.3764 84.0675 60.3768C88.6648 60.4061 92.134 61.7428 94.3793 64.3495C96.0133 66.2472 97.1061 68.8697 97.6473 72.1793C93.5712 71.4865 89.1631 71.2735 84.4506 71.5437C71.1757 72.3084 62.6416 80.0506 63.2148 90.8086C63.5056 96.2656 66.2242 100.96 70.8694 104.027C74.7969 106.619 79.8552 107.887 85.1123 107.6C92.0548 107.22 97.5012 104.571 101.301 99.7275C104.187 96.0493 106.012 91.2828 106.817 85.2769C110.126 87.2737 112.578 89.9013 113.932 93.06C116.235 98.4295 116.369 107.253 109.17 114.447C102.862 120.748 95.2793 123.475 83.82 123.559C71.1086 123.465 61.4951 119.388 55.2447 111.442C49.3917 104.002 46.3668 93.2551 46.2539 79.5C46.3668 65.7448 49.3917 54.9979 55.2447 47.5575C61.4951 39.6118 71.1084 35.5353 83.8199 35.4408C96.6235 35.536 106.405 39.6321 112.894 47.6162C116.076 51.5315 118.475 56.4553 120.057 62.1963L129.056 59.7954C127.139 52.7289 124.122 46.6397 120.017 41.5897C111.697 31.3537 99.5292 26.1088 83.8512 26H83.7885C68.1423 26.1084 56.1107 31.3733 48.0279 41.6484C40.8352 50.7919 37.1251 63.5145 37.0004 79.4624L37 79.5L37.0004 79.5376C37.1251 95.4854 40.8352 108.208 48.0279 117.352C56.1107 127.627 68.1423 132.892 83.7885 133H83.8512C97.7615 132.904 107.566 129.262 115.644 121.192C126.212 110.634 125.894 97.3997 122.411 89.2755C119.912 83.4495 115.147 78.7177 108.633 75.5924ZM84.6153 98.1732C78.7971 98.5009 72.7527 95.8894 72.4547 90.2959C72.2338 86.1485 75.4062 81.5207 84.9723 80.9695C86.0679 80.9063 87.1429 80.8754 88.1989 80.8754C91.6737 80.8754 94.9243 81.213 97.8797 81.859C96.7773 95.6252 90.3116 97.8605 84.6153 98.1732Z" fill="white"/>
</svg>
